<svg width="120" height="48" viewBox="0 0 120 48" fill="none" xmlns="http://www.w3.org/2000/svg">
<path fill-rule="evenodd" clip-rule="evenodd" d="M16.0082 0.841543C5.24458 2.17415 0.444184 7.65492 0.420984 18.6379C0.407384 25.1089 2.01978 29.9272 5.43858 33.6293C8.59418 37.0465 14.1294 39.2766 19.4998 39.2948L21.5998 39.3017V42.4997C21.5998 44.945 21.7386 45.7517 22.1898 45.9271C22.8522 46.1848 34.2334 36.0247 36.237 33.3874C39.6446 28.9022 40.5998 25.7171 40.5998 18.8405C40.5998 13.9861 40.2386 12.0352 38.7842 9.0321C36.817 4.96984 33.5942 2.65185 28.1998 1.41891C24.853 0.653948 19.5506 0.402741 16.0082 0.841543Z" fill="#0495FB"/>
<path fill-rule="evenodd" clip-rule="evenodd" d="M86.2744 5.84056C85.096 6.94668 84.6 8.44744 84.9956 9.70955C85.246 10.5086 85.5008 10.5564 88.9316 10.4478L92.6 10.3319L92.7244 8.80602C92.9952 5.49049 88.7344 3.53148 86.2744 5.84056ZM46 20.885V36.5024L48.6928 36.3829L51.3856 36.2629L51.848 34.0345C52.102 32.8088 52.3304 32.0341 52.3552 32.3125C52.38 32.5913 53.1032 33.5313 53.9632 34.4024C56.83 37.3063 61.5976 37.5433 65.3028 34.966C66.3092 34.2658 67.2244 33.0576 68.0752 31.3073C69.2252 28.9415 69.3448 28.3422 69.3368 24.9829C69.3264 20.4539 68.3544 17.8248 65.8132 15.4521C62.2996 12.1714 56.76 12.3752 53.5048 15.9046L52.4 17.1031V11.1852V5.26724H49.2H46V20.885ZM71.6792 18.1315L71.8 30.9957L72.8 32.7849C74.2176 35.3213 76.032 36.171 80.1396 36.2224L83.4 36.2629L83.5184 33.528L83.6364 30.7931H80.8184H78V18.0302V5.26724H74.7792H71.5584L71.6792 18.1315ZM107.016 13.555C105.616 13.9387 104.587 14.5813 103.524 15.7361C102.695 16.636 101.944 17.247 101.854 17.0938C101.765 16.9403 101.566 16.0396 101.411 15.0927L101.13 13.3707H98.5648H96V28.7843V44.1978L99.1 44.0795L102.2 43.9612V38.4059V32.851L103.6 34.2051C105.659 36.1965 106.712 36.6199 109.6 36.6154C115.257 36.6069 118.684 32.8101 119.115 26.0745C119.678 17.2721 114.186 11.5891 107.016 13.555ZM85.8668 13.6409C85.72 13.7892 85.6 18.9856 85.6 25.1884V36.4655H88.8H92V24.9181V13.3707H89.0668C87.4532 13.3707 86.0132 13.4922 85.8668 13.6409ZM55.3552 19.035C52.0824 20.3745 51.3728 26.9975 54.196 29.8572C55.3152 30.9908 55.808 31.1983 57.38 31.1983C61.1444 31.1983 62.9384 29.1712 62.9384 24.9181C62.9384 22.0373 62.0884 20.1302 60.4132 19.2526C59.142 18.5869 56.7064 18.4819 55.3552 19.035ZM104.552 19.3875C103.028 20.3587 102.4 22.0543 102.4 25.2013C102.4 29.3248 104.093 31.1983 107.82 31.1983C109.392 31.1983 109.885 30.9908 111.004 29.8572C113.27 27.5619 113.383 22.6013 111.225 20.1549C109.786 18.5233 106.502 18.1456 104.552 19.3875Z" fill="#040404"/>
</svg>
