<svg width="120" height="48" viewBox="0 0 120 48" fill="none" xmlns="http://www.w3.org/2000/svg">
<g clip-path="url(#clip0_2186_267)">
<path fill-rule="evenodd" clip-rule="evenodd" d="M11.0707 33.9868C11.0548 33.9702 11.0408 33.9529 11.0244 33.9369C10.6447 33.5636 10.1708 33.3567 9.68569 33.3097V29.4276C10.2095 29.3769 10.7181 29.1408 11.1083 28.7171C11.7789 27.9892 11.9002 26.9305 11.4892 26.0811L14.9391 23.7219C15.1275 23.9619 15.3594 24.1601 15.6205 24.306L11.0707 33.9868ZM3.99161 23.7425L7.4451 26.1039C7.02865 26.9912 7.19037 28.0887 7.92143 28.8029C8.30231 29.1747 8.77683 29.3809 9.26197 29.428V33.3097C8.75372 33.3586 8.26067 33.5843 7.87614 33.9846L3.32712 24.3066C3.5852 24.1626 3.80953 23.9699 3.99161 23.7425ZM16.2273 19.9879C15.7069 20.1009 15.2677 20.391 14.954 20.7841L11.4588 18.3937C11.8115 17.7148 11.8184 16.8866 11.4592 16.1963L14.9552 13.806C15.3327 14.2759 15.8811 14.5815 16.4802 14.64V19.9491C16.3963 19.9575 16.3121 19.9694 16.2273 19.9879ZM11.0244 25.4308C10.6447 25.0578 10.1708 24.851 9.68569 24.8039V22.477H14.4481C14.4563 22.5647 14.4679 22.6528 14.4858 22.741C14.5314 22.9642 14.6077 23.172 14.7071 23.3627L11.2679 25.7146C11.195 25.6156 11.115 25.5195 11.0244 25.4308ZM4.50078 22.477H9.26197V24.8039C8.73822 24.8544 8.22936 25.0911 7.83996 25.5146C7.77522 25.5847 7.71716 25.6592 7.66275 25.7352L4.2269 23.3858C4.37584 23.1086 4.47189 22.8002 4.50078 22.477ZM2.72008 14.6006C3.23988 14.4871 3.67822 14.1968 3.99161 13.8054L7.48918 16.197C7.13626 16.8765 7.12897 17.7043 7.48826 18.3943L3.99435 20.7834C3.6162 20.312 3.06722 20.0054 2.46717 19.9473V14.6388C2.55137 14.6305 2.63557 14.6185 2.72008 14.6006ZM4.49926 22.048C4.49136 21.9594 4.4798 21.8704 4.46156 21.7815C4.41444 21.551 4.33511 21.3362 4.23023 21.1395L7.7205 18.7532C7.73843 18.7763 7.75455 18.8006 7.774 18.8233C8.16978 19.2902 8.70661 19.5536 9.26197 19.6075V22.048H4.49926ZM14.4466 22.048H9.68569V19.6075C10.1398 19.5641 10.5855 19.3807 10.9557 19.048C11.057 18.9572 11.1463 18.8578 11.2278 18.7535L14.7189 21.1411C14.5709 21.4177 14.4755 21.7252 14.4466 22.048ZM14.4858 12.8039C14.5332 13.0363 14.6129 13.2527 14.7187 13.4499L11.2272 15.8375C11.2089 15.8144 11.1928 15.7904 11.1737 15.7679C10.3551 14.8001 8.93124 14.7003 7.99256 15.5421C7.89134 15.6335 7.80167 15.7329 7.7202 15.8372L4.2269 13.4487C4.37584 13.1711 4.47189 12.8627 4.50078 12.5396H14.4481C14.4563 12.6276 14.4679 12.7156 14.4858 12.8039ZM17.1572 14.6006C18.3764 14.3341 19.1552 13.1016 18.8987 11.8447C18.6427 10.59 17.4447 9.78487 16.2273 10.0508C15.2361 10.2656 14.5351 11.1224 14.4466 12.1106H4.49926C4.49136 12.0223 4.4798 11.9336 4.46156 11.8447C4.20562 10.59 3.00764 9.78487 1.79051 10.0508C0.57187 10.3148 -0.208135 11.5486 0.049029 12.8039C0.25695 13.8248 1.0859 14.5468 2.04342 14.64V19.9491C1.95952 19.9575 1.87502 19.9694 1.79051 19.9879C0.57187 20.252 -0.208135 21.4854 0.049029 22.741C0.304978 23.9973 1.50143 24.8009 2.72008 24.5378C2.80853 24.5183 2.89395 24.4925 2.97724 24.4636L7.60986 34.3195C7.00069 35.2455 7.10799 36.514 7.92143 37.3086C8.82455 38.1897 10.252 38.1522 11.1083 37.2231C11.8512 36.4161 11.9221 35.2024 11.3384 34.3185L15.9711 24.4623C16.3407 24.5919 16.7471 24.6263 17.1572 24.5378C18.3764 24.2713 19.1552 23.0387 18.8987 21.7815C18.6905 20.7622 17.8609 20.0402 16.904 19.9473V14.6388C16.9882 14.6305 17.0726 14.6185 17.1572 14.6006Z" fill="#1D2751"/>
<path d="M95.7524 24.3368V24.3366C95.7505 24.2923 95.7477 24.2467 95.7458 24.1987H93.6208V24.6076C93.6208 24.911 93.6198 25.2144 93.6187 25.5179C93.6159 26.3443 93.6131 27.1708 93.6311 27.997C93.6375 28.3146 93.521 28.4174 93.2551 28.4712C92.307 28.6564 91.3579 28.6866 90.4068 28.5417C89.1951 28.3548 88.3641 27.6245 88.1066 26.4425C87.8333 25.1883 87.8218 23.9149 88.1024 22.6558C88.3392 21.6033 88.976 20.8893 90.0019 20.6213C90.5111 20.488 91.0449 20.4252 91.572 20.3997C92.8268 20.3387 94.0518 20.564 95.2743 20.9731C95.2986 20.7806 95.3221 20.5924 95.3446 20.4072V20.4065V20.4051V20.4029C95.3989 19.9638 95.4505 19.5418 95.5068 19.1206C95.5339 18.92 95.4861 18.8233 95.2799 18.7593C93.3125 18.1546 91.3187 18.0367 89.3174 18.5101C87.526 18.9341 86.2554 20.0236 85.6985 21.8652C85.2161 23.4606 85.2107 25.0932 85.5566 26.7179C85.8414 28.0615 86.501 29.1685 87.672 29.8905C88.5352 30.4218 89.486 30.6618 90.4816 30.7584C92.1672 30.9203 93.8155 30.7812 95.4308 30.2377C95.6868 30.1524 95.7693 30.0253 95.7674 29.7484C95.7599 28.6097 95.7608 27.4712 95.7608 26.3326C95.7618 25.7463 95.7618 25.16 95.7608 24.5735C95.7608 24.4957 95.7571 24.4188 95.7524 24.3368Z" fill="#1D2751"/>
<path d="M35.7697 23.5772C36.2179 23.7182 36.6666 23.8594 37.0909 24.0581C38.7958 24.8559 39.4294 26.4558 38.7862 28.274C38.3533 29.4937 37.4362 30.1868 36.271 30.5108C34.1444 31.103 32.0789 30.8444 30.0887 29.8839C30.0698 29.875 30.0524 29.8609 30.0334 29.8455C30.0229 29.8371 30.0119 29.8282 30 29.8196C30.0752 29.2891 30.1522 28.761 30.2332 28.2069L30.2335 28.2045C30.2568 28.0452 30.2803 27.8837 30.3042 27.7195C30.3536 27.7414 30.4001 27.7618 30.4447 27.7813C30.5204 27.8144 30.5906 27.8451 30.6602 27.8771C32.1038 28.5578 33.6037 28.8804 35.1877 28.6188C35.6689 28.5375 36.1203 28.3557 36.4312 27.9321C36.871 27.3345 36.7795 26.5934 36.1352 26.2577C35.6886 26.0247 35.2053 25.8636 34.7232 25.7029C34.58 25.6551 34.4366 25.6074 34.2946 25.5578C34.0238 25.4638 33.7496 25.379 33.4755 25.2944C33.0079 25.1499 32.5404 25.0054 32.091 24.8149C30.8204 24.2742 30.0377 23.3318 30.0714 21.8398C30.104 20.3423 30.9283 19.1861 32.3321 18.6459C33.4863 18.2028 34.6895 18.1701 35.8874 18.3129C36.5007 18.3858 37.106 18.5372 37.7105 18.6885C37.9051 18.7371 38.0996 18.7858 38.2942 18.8318C38.3888 18.8537 38.5393 18.9959 38.5311 19.0666C38.4801 19.5525 38.4099 20.0353 38.3438 20.4902C38.3237 20.6286 38.3039 20.7646 38.2852 20.8971C37.9882 20.8463 37.6961 20.7938 37.4075 20.7418C36.7495 20.6235 36.1087 20.5082 35.4643 20.4226C34.6885 20.3201 33.9073 20.3647 33.1726 20.6855C32.6008 20.9335 32.2789 21.4638 32.4643 21.9749C32.568 22.2617 32.8257 22.583 33.0914 22.6926C33.5796 22.8948 34.0852 23.0494 34.5912 23.2042C34.8493 23.2832 35.1076 23.3622 35.3636 23.4475C35.4985 23.4918 35.6341 23.5344 35.7697 23.5772Z" fill="#1D2751"/>
<path d="M55.3589 18.4786H52.9307V30.5568H55.3589V18.4786Z" fill="#1D2751"/>
<path d="M70.4062 18.4823H67.9717V30.5666H70.4062V18.4823Z" fill="#1D2751"/>
<path d="M57.4561 18.4786H59.852V28.3883H66.0024V30.57H57.4561V18.4786Z" fill="#1D2751"/>
<path d="M40.6338 20.6764H44.5089V30.5765H46.9735V20.6613H50.8334V18.4823H40.6338V20.6764Z" fill="#1D2751"/>
<path d="M106.311 18.4786H108.743V18.8935C108.743 19.5147 108.744 20.136 108.746 20.7574V20.7593C108.749 22.3595 108.753 23.9599 108.733 25.5589C108.723 26.2448 108.652 26.9441 108.496 27.6082C108.141 29.1125 107.165 30.0733 105.74 30.4888C104.016 30.9956 102.271 31.0003 100.571 30.3605C98.9446 29.7502 98.0437 28.4579 97.9602 26.7289C97.8759 24.9548 97.8759 23.1763 97.8768 21.3974C97.8768 20.6624 97.8768 19.9273 97.8712 19.1923C97.8684 19.0248 97.8693 18.8577 97.8693 18.6806V18.6802C97.8693 18.616 97.8693 18.5505 97.8693 18.4832H100.32V18.931C100.321 19.5809 100.321 20.2309 100.321 20.881C100.32 22.6237 100.319 24.3667 100.339 26.1088C100.355 27.5242 101.169 28.4237 102.547 28.5431C103.183 28.5967 103.845 28.5847 104.471 28.4665C105.606 28.2548 106.266 27.4358 106.281 26.2503C106.304 24.5332 106.305 22.8148 106.307 21.0962C106.308 20.3854 106.309 19.6747 106.311 18.964V18.4786Z" fill="#1D2751"/>
<path d="M113.267 28.4548V25.2792H118.737V23.3649H113.277V20.5942H119.711V18.4898H110.842V30.5754H120V28.4548H113.267Z" fill="#1D2751"/>
<path d="M80.9758 26.4765C81.0076 26.5108 81.0422 26.548 81.0803 26.5901V18.4839H83.2185V30.5876C83.0899 30.5876 82.9612 30.5882 82.8324 30.5886C82.4461 30.5902 82.0597 30.5918 81.6743 30.5793C81.591 30.5774 81.4965 30.4796 81.4344 30.4014C79.8365 28.4418 78.2407 26.4805 76.6448 24.5191C76.0237 23.7556 75.4024 22.9921 74.781 22.2287C74.7717 22.2175 74.7603 22.2095 74.7355 22.1922C74.7213 22.1821 74.7025 22.169 74.6773 22.1505V30.5605H72.5039V18.4559C72.6675 18.4559 72.8314 18.4572 72.9955 18.4586C73.3889 18.4619 73.7837 18.4652 74.1788 18.4497C74.4688 18.4383 74.6449 18.5476 74.8272 18.7766C76.3917 20.7538 77.9648 22.7244 79.5375 24.6943C79.962 25.226 80.3865 25.7577 80.8107 26.2895C80.8582 26.3499 80.9112 26.407 80.9758 26.4765Z" fill="#1D2751"/>
</g>
<defs>
<clipPath id="clip0_2186_267">
<rect width="120" height="28" fill="white" transform="translate(0 10)"/>
</clipPath>
</defs>
</svg>
